<svg data-v-423bf9ae="" xmlns="http://www.w3.org/2000/svg" viewBox="0 0 288 90" class="iconLeftSlogan"><!----><!----><!----><g data-v-423bf9ae="" id="df491f6f-02df-443a-af8a-b2ce5334d804" fill="#fffaf0" transform="matrix(4.285714577655423,0,0,4.285714577655423,110.00000539653111,-12.000000374657809)"><path d="M3.89 8.54C4.59 8.44 5.01 8.40 5.71 8.39C4.86 9.80 3.88 11.21 2.98 12.15C2.27 11.94 1.61 11.79 1.08 11.79C0.29 11.79 0 12.12 0 12.52C0 13.02 0.48 13.64 1.29 13.64C1.85 13.64 2.45 13.34 3.08 12.85C4.30 13.41 5.63 14.10 6.61 14.10C7.28 14.10 7.77 13.78 8.08 12.91C7.78 13.06 7.48 13.13 7.08 13.13C6.13 13.13 4.86 12.73 3.65 12.35C4.70 11.34 5.78 9.87 6.71 8.36C7.97 8.33 8.25 8.32 8.55 7.87C8.12 7.87 7.63 7.80 7.07 7.74C7.84 6.41 8.48 5.12 8.89 4.16C9.10 4.05 9.32 3.89 9.59 3.67C9.45 3.70 9.32 3.70 9.14 3.70C7.67 3.70 6.26 2.80 4.30 2.80C2.63 2.80 1.60 3.44 1.60 4.69C1.60 5.25 1.81 5.60 2.35 5.70C2.31 5.56 2.30 5.43 2.30 5.21C2.30 3.67 2.98 3.19 3.88 3.19C5.12 3.19 6.83 4.10 7.77 4.34C7.46 5.15 6.86 6.37 6.13 7.66C5.92 7.64 5.71 7.63 5.50 7.63C4.38 7.63 3.46 7.83 3.42 8.61ZM1.22 13.26C0.70 13.26 0.36 12.80 0.36 12.49C0.36 12.31 0.48 12.15 0.88 12.15C1.32 12.15 1.89 12.35 2.51 12.60C2.03 13.01 1.58 13.26 1.22 13.26ZM13.30 8.69C13.30 8.01 12.87 7.84 12.43 7.84C10.78 7.84 8.88 10.21 8.88 11.87C8.88 12.78 9.45 13.50 10.58 13.50C11.97 13.50 13.43 12.42 14.18 10.74L14.01 10.61C13.31 11.96 12.07 13.09 10.88 13.09C10.01 13.09 9.77 12.49 9.77 11.91C9.77 11.77 9.79 11.59 9.83 11.41C11.42 11.26 13.30 10.12 13.30 8.69ZM12.39 8.27C12.63 8.27 12.68 8.39 12.68 8.60C12.68 9.80 10.89 10.79 9.90 11.14C10.28 9.81 11.49 8.27 12.39 8.27ZM25.82 5.03C25.82 3.08 23.83 2.80 22.58 2.80C21.13 2.80 20.20 3.18 19.26 3.57C19.26 3.71 19.57 3.95 19.71 3.95C19.89 3.95 20.47 3.40 21.64 3.19C20.41 5.59 18.96 10.12 18.68 11.05C18.61 11.28 18.48 11.62 18.48 11.84C18.48 12.22 18.84 12.52 19.31 12.52C19.73 11.07 20.13 9.52 20.57 8.01C20.87 8.01 21.25 7.99 21.62 7.99C23.21 7.99 25.14 8.23 25.14 9.76C25.14 11.45 22.79 13.08 19.57 13.08C18.62 13.08 18.38 12.94 18.26 12.94C18.21 12.94 18.19 12.95 18.19 12.98C18.19 13.78 18.72 14.10 19.74 14.10C21.83 14.10 25.80 12.74 25.80 10.01C25.80 9.13 25.38 7.92 22.61 7.76C24.05 7.52 25.82 6.86 25.82 5.03ZM22.61 3.09C23.81 3.09 24.98 3.46 24.98 4.91C24.98 6.96 22.69 7.62 20.65 7.69C21.14 6.02 21.67 4.42 22.34 3.11C22.43 3.09 22.51 3.09 22.61 3.09ZM31.42 3.84C31.42 3.44 31.25 2.80 30.95 2.80C30.00 2.80 26.60 9.17 26.60 11.86C26.60 12.68 26.92 13.30 27.72 13.30C28.73 13.30 29.61 12.32 30.35 10.72L30.14 10.61C29.65 11.70 28.87 12.85 28.13 12.85C27.72 12.85 27.51 12.50 27.51 11.77C27.51 11.35 27.58 10.86 27.69 10.36C29.74 8.67 31.42 5.08 31.42 3.84ZM30.88 3.93C30.93 3.93 30.98 3.98 30.98 4.16C30.98 5.10 29.44 8.25 27.82 9.88C28.59 7.18 30.51 3.93 30.88 3.93ZM35.81 10.64C35.45 11.41 35.10 11.70 34.71 11.70C34.22 11.70 33.73 11.26 33.73 10.54C33.73 9.80 34.27 9.13 34.27 8.78C34.27 8.61 34.15 8.23 33.80 8.23C33.75 8.23 33.73 8.23 33.70 8.25C33.61 8.08 33.45 7.95 33.10 7.95C31.43 7.95 29.71 10.63 29.71 12.11C29.71 12.82 30.11 13.33 30.83 13.33C31.81 13.33 32.69 12.38 33.28 11.00C33.56 11.65 34.08 11.98 34.59 11.98C35.06 11.98 35.59 11.72 35.99 10.78ZM31.14 12.73C30.80 12.73 30.60 12.45 30.60 12.01C30.60 10.95 31.74 8.50 33.32 8.50C33.17 8.74 33.05 9.14 33.05 9.77C33.05 10.09 33.08 10.35 33.14 10.57C32.63 11.77 31.77 12.73 31.14 12.73ZM39.68 8.75C39.72 8.74 39.84 8.64 39.84 8.47C39.84 8.23 39.62 8.02 39.09 8.02C37.58 8.02 35.38 9.70 35.38 11.65C35.38 12.46 35.76 13.01 36.43 13.01C37.21 13.01 38.00 12.24 38.71 11.21C38.49 12.12 38.25 12.88 38.00 13.52C36.82 14.11 35.27 14.85 35.27 15.99C35.27 16.56 35.67 16.80 36.08 16.80C37.13 16.80 38.02 15.27 38.81 13.38C39.68 12.96 40.99 12.01 41.43 10.75L41.24 10.61C40.82 11.68 39.87 12.54 38.96 12.98C39.61 11.31 40.04 9.60 40.04 9.14C39.93 9.11 39.83 9.10 39.75 9.10C39.28 9.10 39.09 9.55 39.03 9.81L38.86 10.56C38.15 11.58 37.32 12.40 36.79 12.40C36.50 12.40 36.30 12.17 36.30 11.72C36.30 10.54 37.65 8.54 39.12 8.54C39.40 8.54 39.58 8.61 39.68 8.75ZM36.04 16.35C35.84 16.35 35.70 16.16 35.70 15.86C35.70 15.06 36.74 14.46 37.84 13.90C37.10 15.69 36.40 16.35 36.04 16.35Z"></path></g><!----><g data-v-423bf9ae="" id="3775ab45-8a34-4a6c-add6-1fc168b46488" transform="matrix(1.4950166870835357,0,0,1.4950166870835357,-28.850831884128482,-28.850831884128482)" stroke="none" fill="#fffaf0"><style>.st0{fill:none;stroke:#000;stroke-miterlimit:10}</style><path d="M24.9 49.5h6.3v1h-6.3zM68.8 49.5h6.3v1h-6.3z"></path><path d="M62.6 55.7H29.1l1.4-.9c4.4-2.9 5-5.4 5-5.4V37.9h27.2v17.8zm-30.3-1h29.3V38.8H36.4v10.6c0 .2-.5 2.5-4.1 5.3z"></path><path d="M50 80.1c-16.6 0-30.1-13.5-30.1-30.1S33.4 19.9 50 19.9 80.1 33.4 80.1 50c0 14.4-10.3 26.8-24.5 29.6l-.6.1-.2-19.3h15.4c-3.6-2.8-4.1-5.1-4.1-5.2V44.5h-2.3v-1h3.3v11.6c.1.3.9 2.7 5 5.4l1.4.9H55.9l.1 17.1C69.4 75.6 79.1 63.7 79.1 50 79.1 33.9 66 20.9 50 20.9S20.9 33.9 20.9 50s13 29.1 29.1 29.1v1z"></path><path d="M50.9 61.4h-11V57h1v3.4h10z"></path></g><!----><g data-v-423bf9ae="" id="1fca5b07-8e91-45ee-8672-cd78b04bf842" fill="#fffaf0" transform="matrix(0.5979110567508342,0,0,0.5979110567508342,109.30642228998447,57.87143746559882)"><path d="M6.19 9.52L6.19 9.52L6.19 9.52Q6.33 9.52 6.52 9.57L6.52 9.57L6.52 9.57Q6.71 9.62 6.86 9.70L6.86 9.70L6.86 9.70Q7.01 9.77 7.12 9.86L7.12 9.86L7.12 9.86Q7.22 9.94 7.22 10.01L7.22 10.01L7.22 10.01Q6.94 10.60 6.71 11.19L6.71 11.19L6.71 11.19Q6.47 11.79 6.30 12.33L6.30 12.33L6.30 12.33Q6.13 12.88 6.04 13.36L6.04 13.36L6.04 13.36Q5.95 13.83 5.95 14.18L5.95 14.18L5.95 14.18Q5.95 14.57 6.03 14.83L6.03 14.83L6.03 14.83Q6.12 15.09 6.31 15.20L6.31 15.20L6.31 15.20Q6.15 15.32 5.88 15.39L5.88 15.39L5.88 15.39Q5.61 15.46 5.40 15.46L5.40 15.46L5.40 15.46Q4.65 15.46 4.65 14.42L4.65 14.42L4.65 14.42Q4.65 13.62 5.18 12.24L5.18 12.24L5.18 12.24Q4.90 12.88 4.54 13.45L4.54 13.45L4.54 13.45Q4.17 14.01 3.79 14.45L3.79 14.45L3.79 14.45Q3.42 14.88 3.03 15.15L3.03 15.15L3.03 15.15Q2.65 15.43 2.32 15.48L2.32 15.48L2.32 15.48Q1.81 15.46 1.48 14.99L1.48 14.99L1.48 14.99Q1.16 14.52 1.16 13.79L1.16 13.79L1.16 13.79Q1.16 13.01 1.50 12.14L1.50 12.14L1.50 12.14Q1.83 11.27 2.36 10.53L2.36 10.53L2.36 10.53Q2.88 9.79 3.50 9.29L3.50 9.29L3.50 9.29Q4.12 8.79 4.69 8.76L4.69 8.76L4.69 8.76Q4.83 8.81 5.00 8.93L5.00 8.93L5.00 8.93Q5.18 9.06 5.34 9.23L5.34 9.23L5.34 9.23Q5.50 9.39 5.61 9.57L5.61 9.57L5.61 9.57Q5.73 9.74 5.74 9.87L5.74 9.87L5.74 9.87Q5.18 9.95 4.58 10.42L4.58 10.42L4.58 10.42Q3.99 10.88 3.51 11.53L3.51 11.53L3.51 11.53Q3.02 12.18 2.72 12.92L2.72 12.92L2.72 12.92Q2.41 13.66 2.41 14.31L2.41 14.31L2.41 14.31Q2.41 14.57 2.60 14.64L2.60 14.64L2.60 14.64Q3.01 14.56 3.54 13.95L3.54 13.95L3.54 13.95Q4.07 13.34 4.83 12.07L4.83 12.07L4.83 12.07Q4.97 11.82 5.15 11.51L5.15 11.51L5.15 11.51Q5.32 11.20 5.50 10.86L5.50 10.86L5.50 10.86Q5.68 10.53 5.86 10.18L5.86 10.18L5.86 10.18Q6.03 9.84 6.19 9.52ZM25.26 14.94L25.26 14.94L25.26 14.94Q25.26 14.45 25.35 13.78L25.35 13.78L25.35 13.78Q25.45 13.12 25.64 12.36L25.64 12.36L25.64 12.36Q25.83 11.61 26.09 10.78L26.09 10.78L26.09 10.78Q26.35 9.95 26.67 9.13L26.67 9.13L26.67 9.13Q26.95 8.39 27.32 7.63L27.32 7.63L27.32 7.63Q27.69 6.87 28.13 6.15L28.13 6.15L28.13 6.15Q28.56 5.42 29.03 4.76L29.03 4.76L29.03 4.76Q29.50 4.10 29.97 3.56L29.97 3.56L29.97 3.56Q30.20 3.56 30.46 3.61L30.46 3.61L30.46 3.61Q30.72 3.67 30.96 3.76L30.96 3.76L30.96 3.76Q31.21 3.85 31.41 3.98L31.41 3.98L31.41 3.98Q31.61 4.10 31.74 4.23L31.74 4.23L31.74 4.23Q30.69 5.31 29.85 6.40L29.85 6.40L29.85 6.40Q29.01 7.50 28.52 8.47L28.52 8.47L28.52 8.47Q28.25 9.00 28.04 9.46L28.04 9.46L28.04 9.46Q27.82 9.93 27.64 10.38L27.64 10.38L27.64 10.38Q27.45 10.84 27.31 11.29L27.31 11.29L27.31 11.29Q27.16 11.75 27.03 12.25L27.03 12.25L27.03 12.25Q29.72 8.82 31.02 8.82L31.02 8.82L31.02 8.82Q31.39 8.82 31.81 9.06L31.81 9.06L31.81 9.06Q32.23 9.30 32.55 9.70L32.55 9.70L32.55 9.70Q32.12 10.18 31.65 10.85L31.65 10.85L31.65 10.85Q31.19 11.52 30.81 12.20L30.81 12.20L30.81 12.20Q30.42 12.88 30.18 13.46L30.18 13.46L30.18 13.46Q29.93 14.04 29.93 14.32L29.93 14.32L29.93 14.32Q29.93 14.46 29.97 14.51L29.97 14.51L29.97 14.51Q30.02 14.56 30.16 14.56L30.16 14.56L30.16 14.56Q30.37 14.56 30.49 14.50L30.49 14.50L30.49 14.50Q30.62 14.45 30.65 14.45L30.65 14.45L30.65 14.45Q30.72 14.56 30.73 14.60L30.73 14.60L30.73 14.60Q30.74 14.64 30.74 14.67L30.74 14.67L30.74 14.67Q30.74 14.73 30.58 14.83L30.58 14.83L30.58 14.83Q30.41 14.94 30.18 15.04L30.18 15.04L30.18 15.04Q29.95 15.15 29.72 15.23L29.72 15.23L29.72 15.23Q29.50 15.32 29.39 15.32L29.39 15.32L29.39 15.32Q29.25 15.32 29.11 15.24L29.11 15.24L29.11 15.24Q28.97 15.16 28.86 15.04L28.86 15.04L28.86 15.04Q28.76 14.91 28.69 14.76L28.69 14.76L28.69 14.76Q28.63 14.60 28.63 14.43L28.63 14.43L28.63 14.43Q28.63 14.22 28.75 13.81L28.75 13.81L28.75 13.81Q28.87 13.40 29.08 12.85L29.08 12.85L29.08 12.85Q29.29 12.29 29.58 11.63L29.58 11.63L29.58 11.63Q29.88 10.98 30.21 10.29L30.21 10.29L30.21 10.29Q30.21 10.23 30.16 10.23L30.16 10.23L30.16 10.23Q30.11 10.23 29.94 10.35L29.94 10.35L29.94 10.35Q29.76 10.46 29.61 10.57L29.61 10.57L29.61 10.57Q29.11 10.95 28.59 11.50L28.59 11.50L28.59 11.50Q28.08 12.05 27.60 12.71L27.60 12.71L27.60 12.71Q27.12 13.37 26.69 14.11L26.69 14.11L26.69 14.11Q26.26 14.84 25.96 15.58L25.96 15.58L25.96 15.58Q25.91 15.68 25.83 15.76L25.83 15.76L25.83 15.76Q25.75 15.85 25.69 15.85L25.69 15.85L25.69 15.85Q25.65 15.85 25.57 15.75L25.57 15.75L25.57 15.75Q25.49 15.65 25.43 15.51L25.43 15.51L25.43 15.51Q25.37 15.36 25.31 15.20L25.31 15.20L25.31 15.20Q25.26 15.05 25.26 14.94ZM41.16 15.67L41.16 15.67L41.16 15.67Q40.36 15.58 39.89 14.97L39.89 14.97L39.89 14.97Q39.41 14.35 39.41 13.40L39.41 13.40L39.41 13.40Q39.41 12.84 39.58 12.24L39.58 12.24L39.58 12.24Q39.75 11.63 40.05 11.07L40.05 11.07L40.05 11.07Q40.36 10.50 40.78 10.00L40.78 10.00L40.78 10.00Q41.20 9.49 41.69 9.13L41.69 9.13L41.69 9.13Q42.46 8.55 43.13 8.55L43.13 8.55L43.13 8.55Q43.58 8.79 44.02 9.55L44.02 9.55L44.02 9.55Q44.09 9.55 44.14 9.54L44.14 9.54L44.14 9.54Q44.20 9.53 44.27 9.53L44.27 9.53L44.27 9.53Q45.01 9.53 45.01 10.85L45.01 10.85L45.01 10.85Q45.01 11.73 44.72 12.52L44.72 12.52L44.72 12.52Q44.44 13.31 43.92 13.96L43.92 13.96L43.92 13.96Q43.41 14.60 42.71 15.04L42.71 15.04L42.71 15.04Q42 15.48 41.16 15.67ZM41.87 11.26L41.87 11.26L41.87 11.26Q41.64 11.58 41.43 11.96L41.43 11.96L41.43 11.96Q41.22 12.33 41.06 12.72L41.06 12.72L41.06 12.72Q40.91 13.10 40.82 13.46L40.82 13.46L40.82 13.46Q40.74 13.82 40.74 14.10L40.74 14.10L40.74 14.10Q40.74 14.43 40.85 14.74L40.85 14.74L40.85 14.74Q40.96 15.05 41.10 15.09L41.10 15.09L41.10 15.09Q41.73 14.95 42.26 14.57L42.26 14.57L42.26 14.57Q42.78 14.18 43.17 13.61L43.17 13.61L43.17 13.61Q43.55 13.03 43.77 12.31L43.77 12.31L43.77 12.31Q43.99 11.58 43.99 10.75L43.99 10.75L43.99 10.75Q43.99 10.39 43.95 10.18L43.95 10.18L43.95 10.18Q43.90 9.97 43.81 9.81L43.81 9.81L43.81 9.81Q43.19 10.00 42.71 10.40L42.71 10.40L42.71 10.40Q42.22 10.81 41.87 11.26ZM60.77 10.88L60.77 10.88L60.77 10.88Q60.55 10.89 60.23 11.16L60.23 11.16L60.23 11.16Q59.91 11.44 59.53 11.87L59.53 11.87L59.53 11.87Q59.16 12.29 58.77 12.81L58.77 12.81L58.77 12.81Q58.37 13.33 57.99 13.84L57.99 13.84L57.99 13.84Q57.62 14.35 57.30 14.80L57.30 14.80L57.30 14.80Q56.98 15.25 56.76 15.51L56.76 15.51L56.76 15.51Q56.45 15.39 56.22 15.14L56.22 15.14L56.22 15.14Q56 14.90 55.90 14.53L55.90 14.53L55.90 14.53Q55.97 14.10 56.10 13.63L56.10 13.63L56.10 13.63Q56.22 13.16 56.43 12.66L56.43 12.66L56.43 12.66Q56.63 12.15 56.93 11.60L56.93 11.60L56.93 11.60Q57.23 11.05 57.67 10.43L57.67 10.43L57.67 10.43Q57.46 10.44 57.09 10.73L57.09 10.73L57.09 10.73Q56.73 11.02 56.31 11.47L56.31 11.47L56.31 11.47Q55.89 11.93 55.44 12.50L55.44 12.50L55.44 12.50Q54.99 13.06 54.60 13.61L54.60 13.61L54.60 13.61Q54.08 14.34 53.74 14.88L53.74 14.88L53.74 14.88Q53.40 15.43 53.24 15.53L53.24 15.53L53.24 15.53Q52.88 15.26 52.74 14.95L52.74 14.95L52.74 14.95Q52.60 14.64 52.53 14.27L52.53 14.27L52.53 14.27Q52.54 13.93 52.63 13.43L52.63 13.43L52.63 13.43Q52.72 12.92 52.89 12.39L52.89 12.39L52.89 12.39Q53.21 11.37 53.73 10.36L53.73 10.36L53.73 10.36Q54.24 9.35 54.71 8.51L54.71 8.51L54.71 8.51Q55.10 8.60 55.42 8.78L55.42 8.78L55.42 8.78Q55.73 8.96 56.08 9.31L56.08 9.31L56.08 9.31Q55.94 9.74 55.65 10.23L55.65 10.23L55.65 10.23Q55.36 10.71 55.03 11.24L55.03 11.24L55.03 11.24Q54.71 11.77 54.45 12.33L54.45 12.33L54.45 12.33Q54.18 12.89 54.10 13.47L54.10 13.47L54.10 13.47Q54.49 12.91 55.03 12.18L55.03 12.18L55.03 12.18Q55.57 11.45 56.13 10.81L56.13 10.81L56.13 10.81Q56.70 10.16 57.26 9.72L57.26 9.72L57.26 9.72Q57.82 9.27 58.27 9.27L58.27 9.27L58.27 9.27Q58.44 9.27 58.63 9.32L58.63 9.32L58.63 9.32Q58.83 9.38 59.00 9.46L59.00 9.46L59.00 9.46Q59.16 9.55 59.28 9.63L59.28 9.63L59.28 9.63Q59.39 9.70 59.40 9.74L59.40 9.74L59.40 9.74Q59.33 10.02 59.07 10.51L59.07 10.51L59.07 10.51Q58.81 10.99 58.52 11.52L58.52 11.52L58.52 11.52Q58.23 12.05 57.97 12.55L57.97 12.55L57.97 12.55Q57.72 13.05 57.68 13.34L57.68 13.34L57.68 13.34Q58.37 12.40 58.97 11.64L58.97 11.64L58.97 11.64Q59.57 10.88 60.10 10.33L60.10 10.33L60.10 10.33Q60.63 9.79 61.09 9.49L61.09 9.49L61.09 9.49Q61.54 9.20 61.95 9.20L61.95 9.20L61.95 9.20Q62.23 9.20 62.47 9.34L62.47 9.34L62.47 9.34Q62.72 9.49 62.82 9.77L62.82 9.77L62.82 9.77Q62.69 10.19 62.41 10.78L62.41 10.78L62.41 10.78Q62.12 11.37 61.82 12.02L61.82 12.02L61.82 12.02Q61.53 12.67 61.30 13.30L61.30 13.30L61.30 13.30Q61.07 13.93 61.07 14.43L61.07 14.43L61.07 14.43Q61.07 14.73 61.15 14.82L61.15 14.82L61.15 14.82Q61.24 14.91 61.39 14.91L61.39 14.91L61.39 14.91Q61.56 14.91 61.70 14.85L61.70 14.85L61.70 14.85Q61.85 14.78 61.92 14.78L61.92 14.78L61.92 14.78Q62.01 14.84 62.02 14.92L62.02 14.92L62.02 14.92Q62.03 15.01 62.03 15.08L62.03 15.08L62.03 15.08Q61.75 15.30 61.46 15.45L61.46 15.45L61.46 15.45Q61.17 15.60 60.80 15.60L60.80 15.60L60.80 15.60Q60.47 15.60 60.25 15.48L60.25 15.48L60.25 15.48Q60.03 15.37 59.89 15.18L59.89 15.18L59.89 15.18Q59.75 14.98 59.70 14.73L59.70 14.73L59.70 14.73Q59.64 14.48 59.64 14.18L59.64 14.18L59.64 14.18Q59.64 13.71 59.77 13.24L59.77 13.24L59.77 13.24Q59.89 12.77 60.07 12.34L60.07 12.34L60.07 12.34Q60.24 11.91 60.44 11.54L60.44 11.54L60.44 11.54Q60.63 11.17 60.77 10.88ZM75.40 9.38L75.40 9.38L75.40 9.38Q75.35 10.25 75.10 10.87L75.10 10.87L75.10 10.87Q74.84 11.49 74.37 11.96L74.37 11.96L74.37 11.96Q73.91 12.43 73.23 12.81L73.23 12.81L73.23 12.81Q72.56 13.19 71.67 13.54L71.67 13.54L71.67 13.54Q71.67 13.62 71.66 13.71L71.66 13.71L71.66 13.71Q71.65 13.80 71.65 13.90L71.65 13.90L71.65 13.90Q71.65 14.08 71.68 14.28L71.68 14.28L71.68 14.28Q71.71 14.48 71.78 14.64L71.78 14.64L71.78 14.64Q71.85 14.81 71.97 14.92L71.97 14.92L71.97 14.92Q72.10 15.02 72.30 15.02L72.30 15.02L72.30 15.02Q72.67 15.02 73.04 14.85L73.04 14.85L73.04 14.85Q73.40 14.69 73.73 14.44L73.73 14.44L73.73 14.44Q74.06 14.20 74.35 13.91L74.35 13.91L74.35 13.91Q74.63 13.62 74.86 13.38L74.86 13.38L74.86 13.38Q75.00 13.51 75.10 13.62L75.10 13.62L75.10 13.62Q74.47 14.46 73.72 15.02L73.72 15.02L73.72 15.02Q72.97 15.57 72.30 15.72L72.30 15.72L72.30 15.72Q71.33 15.61 70.79 15.02L70.79 15.02L70.79 15.02Q70.25 14.42 70.25 13.58L70.25 13.58L70.25 13.58Q70.25 13.01 70.41 12.41L70.41 12.41L70.41 12.41Q70.57 11.82 70.86 11.26L70.86 11.26L70.86 11.26Q71.15 10.71 71.53 10.22L71.53 10.22L71.53 10.22Q71.92 9.73 72.36 9.37L72.36 9.37L72.36 9.37Q72.80 9.00 73.27 8.79L73.27 8.79L73.27 8.79Q73.74 8.58 74.20 8.58L74.20 8.58L74.20 8.58Q74.84 8.67 75.40 9.38ZM74.44 9.84L74.44 9.84L74.44 9.84Q74.06 9.90 73.65 10.15L73.65 10.15L73.65 10.15Q73.25 10.40 72.89 10.82L72.89 10.82L72.89 10.82Q72.53 11.24 72.24 11.80L72.24 11.80L72.24 11.80Q71.95 12.36 71.78 13.01L71.78 13.01L71.78 13.01Q72.90 12.45 73.64 11.63L73.64 11.63L73.64 11.63Q74.38 10.81 74.44 9.84ZM94.15 19.22L94.15 19.22L94.15 19.22Q93.80 19.08 93.73 18.69L93.73 18.69L93.73 18.69Q93.67 18.31 93.25 18.07L93.25 18.07L93.25 18.07Q93.37 17.36 93.51 16.63L93.51 16.63L93.51 16.63Q93.65 15.90 93.86 14.97L93.86 14.97L93.86 14.97Q94.08 14.04 94.41 12.80L94.41 12.80L94.41 12.80Q94.74 11.56 95.24 9.80L95.24 9.80L95.24 9.80Q94.78 9.80 94.51 9.81L94.51 9.81L94.51 9.81Q94.25 9.83 94.00 9.87L94.00 9.87L94.00 9.87Q93.94 9.81 93.90 9.72L93.90 9.72L93.90 9.72Q93.87 9.62 93.87 9.53L93.87 9.53L93.87 9.53Q94.01 9.48 94.44 9.39L94.44 9.39L94.44 9.39Q94.88 9.30 95.40 9.23L95.40 9.23L95.40 9.23Q95.73 8.16 96.17 7.32L96.17 7.32L96.17 7.32Q96.60 6.47 97.10 5.87L97.10 5.87L97.10 5.87Q97.61 5.26 98.17 4.94L98.17 4.94L98.17 4.94Q98.73 4.62 99.30 4.62L99.30 4.62L99.30 4.62Q99.47 4.62 99.62 4.64L99.62 4.64L99.62 4.64Q99.78 4.66 99.86 4.66L99.86 4.66L99.86 4.66Q99.99 4.56 100.20 4.49L100.20 4.49L100.20 4.49Q100.41 4.41 100.56 4.41L100.56 4.41L100.56 4.41Q100.73 4.41 101.00 4.59L101.00 4.59L101.00 4.59Q100.88 4.79 100.76 5.12L100.76 5.12L100.76 5.12Q100.63 5.46 100.55 5.78L100.55 5.78L100.55 5.78Q100.20 6.82 99.81 7.13L99.81 7.13L99.81 7.13Q99.65 7.13 99.64 6.72L99.64 6.72L99.64 6.72Q99.62 6.43 99.55 6.15L99.55 6.15L99.55 6.15Q99.50 6.02 99.48 5.92L99.48 5.92L99.48 5.92Q99.46 5.82 99.46 5.67L99.46 5.67L99.46 5.67Q99.46 5.59 99.47 5.47L99.47 5.47L99.47 5.47Q99.48 5.35 99.53 5.07L99.53 5.07L99.53 5.07Q99.29 5.07 99.00 5.36L99.00 5.36L99.00 5.36Q98.71 5.66 98.40 6.20L98.40 6.20L98.40 6.20Q98.08 6.73 97.76 7.48L97.76 7.48L97.76 7.48Q97.44 8.22 97.15 9.11L97.15 9.11L98.32 9.07L98.32 9.07Q98.39 9.14 98.44 9.39L98.44 9.39L98.44 9.39Q98.49 9.63 98.50 9.90L98.50 9.90L96.96 9.81L96.96 9.81Q96.43 11.40 95.97 12.84L95.97 12.84L95.97 12.84Q95.51 14.28 95.14 15.50L95.14 15.50L95.14 15.50Q94.78 16.72 94.52 17.68L94.52 17.68L94.52 17.68Q94.26 18.63 94.15 19.22ZM106.76 15.67L106.76 15.67L106.76 15.67Q105.97 15.58 105.49 14.97L105.49 14.97L105.49 14.97Q105.01 14.35 105.01 13.40L105.01 13.40L105.01 13.40Q105.01 12.84 105.18 12.24L105.18 12.24L105.18 12.24Q105.35 11.63 105.66 11.07L105.66 11.07L105.66 11.07Q105.97 10.50 106.39 10.00L106.39 10.00L106.39 10.00Q106.81 9.49 107.30 9.13L107.30 9.13L107.30 9.13Q108.07 8.55 108.74 8.55L108.74 8.55L108.74 8.55Q109.19 8.79 109.62 9.55L109.62 9.55L109.62 9.55Q109.69 9.55 109.75 9.54L109.75 9.54L109.75 9.54Q109.80 9.53 109.87 9.53L109.87 9.53L109.87 9.53Q110.61 9.53 110.61 10.85L110.61 10.85L110.61 10.85Q110.61 11.73 110.33 12.52L110.33 12.52L110.33 12.52Q110.04 13.31 109.53 13.96L109.53 13.96L109.53 13.96Q109.02 14.60 108.31 15.04L108.31 15.04L108.31 15.04Q107.60 15.48 106.76 15.67ZM107.48 11.26L107.48 11.26L107.48 11.26Q107.24 11.58 107.03 11.96L107.03 11.96L107.03 11.96Q106.82 12.33 106.67 12.72L106.67 12.72L106.67 12.72Q106.51 13.10 106.43 13.46L106.43 13.46L106.43 13.46Q106.34 13.82 106.34 14.10L106.34 14.10L106.34 14.10Q106.34 14.43 106.46 14.74L106.46 14.74L106.46 14.74Q106.57 15.05 106.71 15.09L106.71 15.09L106.71 15.09Q107.34 14.95 107.86 14.57L107.86 14.57L107.86 14.57Q108.39 14.18 108.77 13.61L108.77 13.61L108.77 13.61Q109.16 13.03 109.37 12.31L109.37 12.31L109.37 12.31Q109.59 11.58 109.59 10.75L109.59 10.75L109.59 10.75Q109.59 10.39 109.55 10.18L109.55 10.18L109.55 10.18Q109.51 9.97 109.41 9.81L109.41 9.81L109.41 9.81Q108.79 10.00 108.31 10.40L108.31 10.40L108.31 10.40Q107.83 10.81 107.48 11.26ZM117.95 14.90L117.95 14.90L117.95 14.90Q118.02 14.49 118.19 13.82L118.19 13.82L118.19 13.82Q118.37 13.16 118.61 12.41L118.61 12.41L118.61 12.41Q118.85 11.66 119.11 10.91L119.11 10.91L119.11 10.91Q119.38 10.15 119.63 9.55L119.63 9.55L119.63 9.55Q119.81 9.11 119.95 8.87L119.95 8.87L119.95 8.87Q120.09 8.62 120.26 8.46L120.26 8.46L120.26 8.46Q120.46 8.48 120.67 8.55L120.67 8.55L120.67 8.55Q120.88 8.62 121.07 8.72L121.07 8.72L121.07 8.72Q121.27 8.82 121.42 8.93L121.42 8.93L121.42 8.93Q121.58 9.03 121.66 9.13L121.66 9.13L121.66 9.13Q121.28 9.58 121.00 10.15L121.00 10.15L121.00 10.15Q120.71 10.72 120.41 11.62L120.41 11.62L120.41 11.62Q121.17 10.95 121.75 10.33L121.75 10.33L121.75 10.33Q122.33 9.72 122.84 8.96L122.84 8.96L122.84 8.96Q122.92 8.89 123.13 8.89L123.13 8.89L123.13 8.89Q123.33 8.89 123.51 8.95L123.51 8.95L123.51 8.95Q123.69 9.02 123.76 9.13L123.76 9.13L123.76 9.13Q123.51 9.80 123.51 10.46L123.51 10.46L123.51 10.46Q123.51 11.07 123.69 11.38L123.69 11.38L123.69 11.38Q123.68 11.47 123.50 11.70L123.50 11.70L123.50 11.70Q123.33 11.94 123.12 12.15L123.12 12.15L123.12 12.15Q122.74 11.96 122.44 11.61L122.44 11.61L122.44 11.61Q122.15 11.27 122.01 10.86L122.01 10.86L122.01 10.86Q121.35 11.33 120.89 11.77L120.89 11.77L120.89 11.77Q120.43 12.21 120.10 12.75L120.10 12.75L120.10 12.75Q119.77 13.29 119.54 13.99L119.54 13.99L119.54 13.99Q119.31 14.69 119.10 15.65L119.10 15.65L119.10 15.65Q118.97 15.64 118.80 15.56L118.80 15.56L118.80 15.56Q118.62 15.48 118.45 15.37L118.45 15.37L118.45 15.37Q118.27 15.26 118.13 15.13L118.13 15.13L118.13 15.13Q117.99 15.01 117.95 14.90ZM142.88 9.81L142.09 9.81L142.09 9.81Q142.02 9.73 141.96 9.46L141.96 9.46L141.96 9.46Q141.90 9.18 141.90 8.99L141.90 8.99L141.90 8.99Q142.27 9.02 142.60 9.04L142.60 9.04L142.60 9.04Q142.94 9.06 143.22 9.07L143.22 9.07L143.22 9.07Q143.43 8.65 143.67 8.24L143.67 8.24L143.67 8.24Q143.92 7.83 144.15 7.48L144.15 7.48L144.15 7.48Q144.38 7.14 144.58 6.90L144.58 6.90L144.58 6.90Q144.79 6.66 144.90 6.59L144.90 6.59L144.90 6.59Q145.04 6.59 145.26 6.64L145.26 6.64L145.26 6.64Q145.47 6.69 145.70 6.77L145.70 6.77L145.70 6.77Q145.92 6.85 146.10 6.93L146.10 6.93L146.10 6.93Q146.29 7.01 146.36 7.10L146.36 7.10L146.36 7.10Q145.94 7.63 145.63 8.09L145.63 8.09L145.63 8.09Q145.33 8.54 144.98 9.13L144.98 9.13L144.98 9.13Q145.26 9.13 145.55 9.11L145.55 9.11L145.55 9.11Q145.84 9.10 146.13 9.07L146.13 9.07L146.13 9.07Q146.20 9.14 146.24 9.25L146.24 9.25L146.24 9.25Q146.29 9.35 146.29 9.46L146.29 9.46L146.29 9.46Q145.60 9.72 144.62 9.74L144.62 9.74L144.62 9.74Q144.27 10.42 144.00 11.08L144.00 11.08L144.00 11.08Q143.72 11.75 143.53 12.36L143.53 12.36L143.53 12.36Q143.35 12.98 143.24 13.52L143.24 13.52L143.24 13.52Q143.14 14.07 143.14 14.50L143.14 14.50L143.14 14.50Q143.14 15.12 143.60 15.19L143.60 15.19L143.60 15.19Q144.02 15.13 144.40 14.98L144.40 14.98L144.40 14.98Q144.77 14.83 145.07 14.59L145.07 14.59L145.07 14.59Q145.15 14.71 145.17 14.80L145.17 14.80L145.17 14.80Q145.08 14.92 144.88 15.09L144.88 15.09L144.88 15.09Q144.68 15.26 144.44 15.42L144.44 15.42L144.44 15.42Q144.20 15.58 143.98 15.69L143.98 15.69L143.98 15.69Q143.75 15.81 143.64 15.82L143.64 15.82L143.64 15.82Q143.29 15.81 142.94 15.67L142.94 15.67L142.94 15.67Q142.59 15.53 142.30 15.32L142.30 15.32L142.30 15.32Q142.02 15.11 141.83 14.85L141.83 14.85L141.83 14.85Q141.65 14.59 141.65 14.34L141.65 14.34L141.65 14.34Q141.65 14 141.74 13.49L141.74 13.49L141.74 13.49Q141.83 12.98 142.00 12.38L142.00 12.38L142.00 12.38Q142.17 11.77 142.39 11.12L142.39 11.12L142.39 11.12Q142.62 10.46 142.88 9.81L142.88 9.81ZM153.17 14.94L153.17 14.94L153.17 14.94Q153.17 14.45 153.27 13.78L153.27 13.78L153.27 13.78Q153.37 13.12 153.56 12.36L153.56 12.36L153.56 12.36Q153.75 11.61 154.01 10.78L154.01 10.78L154.01 10.78Q154.27 9.95 154.59 9.13L154.59 9.13L154.59 9.13Q154.87 8.39 155.24 7.63L155.24 7.63L155.24 7.63Q155.61 6.87 156.04 6.15L156.04 6.15L156.04 6.15Q156.48 5.42 156.95 4.76L156.95 4.76L156.95 4.76Q157.42 4.10 157.89 3.56L157.89 3.56L157.89 3.56Q158.12 3.56 158.37 3.61L158.37 3.61L158.37 3.61Q158.63 3.67 158.88 3.76L158.88 3.76L158.88 3.76Q159.12 3.85 159.33 3.98L159.33 3.98L159.33 3.98Q159.53 4.10 159.66 4.23L159.66 4.23L159.66 4.23Q158.61 5.31 157.77 6.40L157.77 6.40L157.77 6.40Q156.93 7.50 156.44 8.47L156.44 8.47L156.44 8.47Q156.17 9.00 155.95 9.46L155.95 9.46L155.95 9.46Q155.74 9.93 155.55 10.38L155.55 10.38L155.55 10.38Q155.37 10.84 155.22 11.29L155.22 11.29L155.22 11.29Q155.08 11.75 154.95 12.25L154.95 12.25L154.95 12.25Q157.64 8.82 158.94 8.82L158.94 8.82L158.94 8.82Q159.31 8.82 159.73 9.06L159.73 9.06L159.73 9.06Q160.15 9.30 160.47 9.70L160.47 9.70L160.47 9.70Q160.03 10.18 159.57 10.85L159.57 10.85L159.57 10.85Q159.11 11.52 158.72 12.20L158.72 12.20L158.72 12.20Q158.34 12.88 158.09 13.46L158.09 13.46L158.09 13.46Q157.85 14.04 157.85 14.32L157.85 14.32L157.85 14.32Q157.85 14.46 157.89 14.51L157.89 14.51L157.89 14.51Q157.93 14.56 158.07 14.56L158.07 14.56L158.07 14.56Q158.28 14.56 158.41 14.50L158.41 14.50L158.41 14.50Q158.54 14.45 158.56 14.45L158.56 14.45L158.56 14.45Q158.63 14.56 158.65 14.60L158.65 14.60L158.65 14.60Q158.66 14.64 158.66 14.67L158.66 14.67L158.66 14.67Q158.66 14.73 158.49 14.83L158.49 14.83L158.49 14.83Q158.33 14.94 158.09 15.04L158.09 15.04L158.09 15.04Q157.86 15.15 157.64 15.23L157.64 15.23L157.64 15.23Q157.42 15.32 157.30 15.32L157.30 15.32L157.30 15.32Q157.16 15.32 157.02 15.24L157.02 15.24L157.02 15.24Q156.88 15.16 156.78 15.04L156.78 15.04L156.78 15.04Q156.67 14.91 156.61 14.76L156.61 14.76L156.61 14.76Q156.55 14.60 156.55 14.43L156.55 14.43L156.55 14.43Q156.55 14.22 156.67 13.81L156.67 13.81L156.67 13.81Q156.79 13.40 157.00 12.85L157.00 12.85L157.00 12.85Q157.21 12.29 157.50 11.63L157.50 11.63L157.50 11.63Q157.79 10.98 158.13 10.29L158.13 10.29L158.13 10.29Q158.13 10.23 158.07 10.23L158.07 10.23L158.07 10.23Q158.03 10.23 157.86 10.35L157.86 10.35L157.86 10.35Q157.68 10.46 157.53 10.57L157.53 10.57L157.53 10.57Q157.02 10.95 156.51 11.50L156.51 11.50L156.51 11.50Q156.00 12.05 155.52 12.71L155.52 12.71L155.52 12.71Q155.04 13.37 154.61 14.11L154.61 14.11L154.61 14.11Q154.18 14.84 153.87 15.58L153.87 15.58L153.87 15.58Q153.83 15.68 153.75 15.76L153.75 15.76L153.75 15.76Q153.66 15.85 153.61 15.85L153.61 15.85L153.61 15.85Q153.57 15.85 153.49 15.75L153.49 15.75L153.49 15.75Q153.41 15.65 153.35 15.51L153.35 15.51L153.35 15.51Q153.29 15.36 153.23 15.20L153.23 15.20L153.23 15.20Q153.17 15.05 153.17 14.94ZM169.08 15.67L169.08 15.67L169.08 15.67Q168.28 15.58 167.80 14.97L167.80 14.97L167.80 14.97Q167.33 14.35 167.33 13.40L167.33 13.40L167.33 13.40Q167.33 12.84 167.50 12.24L167.50 12.24L167.50 12.24Q167.66 11.63 167.97 11.07L167.97 11.07L167.97 11.07Q168.28 10.50 168.70 10.00L168.70 10.00L168.70 10.00Q169.12 9.49 169.61 9.13L169.61 9.13L169.61 9.13Q170.38 8.55 171.05 8.55L171.05 8.55L171.05 8.55Q171.50 8.79 171.93 9.55L171.93 9.55L171.93 9.55Q172.00 9.55 172.06 9.54L172.06 9.54L172.06 9.54Q172.12 9.53 172.19 9.53L172.19 9.53L172.19 9.53Q172.93 9.53 172.93 10.85L172.93 10.85L172.93 10.85Q172.93 11.73 172.64 12.52L172.64 12.52L172.64 12.52Q172.35 13.31 171.84 13.96L171.84 13.96L171.84 13.96Q171.33 14.60 170.62 15.04L170.62 15.04L170.62 15.04Q169.92 15.48 169.08 15.67ZM169.79 11.26L169.79 11.26L169.79 11.26Q169.55 11.58 169.34 11.96L169.34 11.96L169.34 11.96Q169.13 12.33 168.98 12.72L168.98 12.72L168.98 12.72Q168.83 13.10 168.74 13.46L168.74 13.46L168.74 13.46Q168.66 13.82 168.66 14.10L168.66 14.10L168.66 14.10Q168.66 14.43 168.77 14.74L168.77 14.74L168.77 14.74Q168.88 15.05 169.02 15.09L169.02 15.09L169.02 15.09Q169.65 14.95 170.18 14.57L170.18 14.57L170.18 14.57Q170.70 14.18 171.09 13.61L171.09 13.61L171.09 13.61Q171.47 13.03 171.69 12.31L171.69 12.31L171.69 12.31Q171.91 11.58 171.91 10.75L171.91 10.75L171.91 10.75Q171.91 10.39 171.86 10.18L171.86 10.18L171.86 10.18Q171.82 9.97 171.72 9.81L171.72 9.81L171.72 9.81Q171.11 10.00 170.62 10.40L170.62 10.40L170.62 10.40Q170.14 10.81 169.79 11.26ZM184.41 14.87L184.41 14.87L184.41 14.87Q184.14 14.64 184.05 14.31L184.05 14.31L184.05 14.31Q183.96 13.97 183.96 13.73L183.96 13.73L183.96 13.73Q183.96 13.44 184.03 13.23L184.03 13.23L184.03 13.23Q183.97 13.23 183.78 13.45L183.78 13.45L183.78 13.45Q183.58 13.68 183.35 13.99L183.35 13.99L183.35 13.99Q183.12 14.29 182.90 14.59L182.90 14.59L182.90 14.59Q182.67 14.88 182.56 15.02L182.56 15.02L182.56 15.02Q182.38 15.22 182.22 15.33L182.22 15.33L182.22 15.33Q182.06 15.44 181.96 15.46L181.96 15.46L181.96 15.46Q181.73 15.44 181.49 15.37L181.49 15.37L181.49 15.37Q181.24 15.29 181.03 15.15L181.03 15.15L181.03 15.15Q180.81 15.01 180.65 14.81L180.65 14.81L180.65 14.81Q180.49 14.62 180.43 14.36L180.43 14.36L180.43 14.36Q180.43 13.97 180.45 13.72L180.45 13.72L180.45 13.72Q180.47 13.47 180.54 13.17L180.54 13.17L180.54 13.17Q180.67 12.64 180.91 11.97L180.91 11.97L180.91 11.97Q181.16 11.30 181.48 10.65L181.48 10.65L181.48 10.65Q181.80 10.00 182.20 9.43L182.20 9.43L182.20 9.43Q182.60 8.86 183.05 8.54L183.05 8.54L183.05 8.54Q183.18 8.54 183.34 8.56L183.34 8.56L183.34 8.56Q183.51 8.58 183.69 8.64L183.69 8.64L183.69 8.64Q183.86 8.69 184.02 8.77L184.02 8.77L184.02 8.77Q184.18 8.85 184.30 8.97L184.30 8.97L184.30 8.97Q184.17 9.11 183.66 9.91L183.66 9.91L183.66 9.91Q183.15 10.71 182.52 12.21L182.52 12.21L182.52 12.21Q182.45 12.36 182.35 12.66L182.35 12.66L182.35 12.66Q182.25 12.95 182.15 13.27L182.15 13.27L182.15 13.27Q182.06 13.59 181.99 13.90L181.99 13.90L181.99 13.90Q181.93 14.21 181.93 14.39L181.93 14.39L181.93 14.39Q181.93 14.50 181.97 14.56L181.97 14.56L181.97 14.56Q182 14.62 182.03 14.64L182.03 14.64L182.03 14.64Q182.24 14.56 182.56 14.18L182.56 14.18L182.56 14.18Q182.88 13.80 183.46 13.02L183.46 13.02L183.46 13.02Q183.60 12.82 183.78 12.57L183.78 12.57L183.78 12.57Q183.97 12.32 184.17 12.03L184.17 12.03L184.17 12.03Q184.37 11.75 184.54 11.44L184.54 11.44L184.54 11.44Q184.72 11.13 184.83 10.82L184.83 10.82L184.83 10.82Q184.88 10.65 184.97 10.42L184.97 10.42L184.97 10.42Q185.07 10.19 185.20 9.94L185.20 9.94L185.20 9.94Q185.33 9.69 185.51 9.43L185.51 9.43L185.51 9.43Q185.68 9.17 185.92 8.95L185.92 8.95L185.92 8.95Q186.10 8.95 186.31 8.99L186.31 8.99L186.31 8.99Q186.52 9.03 186.71 9.09L186.71 9.09L186.71 9.09Q186.90 9.16 187.04 9.23L187.04 9.23L187.04 9.23Q187.18 9.31 187.25 9.39L187.25 9.39L187.25 9.39Q187.00 10.01 186.69 10.61L186.69 10.61L186.69 10.61Q186.38 11.21 186.12 11.79L186.12 11.79L186.12 11.79Q185.85 12.38 185.67 12.95L185.67 12.95L185.67 12.95Q185.49 13.52 185.49 14.07L185.49 14.07L185.49 14.07Q185.49 14.36 185.53 14.58L185.53 14.58L185.53 14.58Q185.58 14.80 185.64 14.95L185.64 14.95L185.64 14.95Q185.70 15.09 185.75 15.19L185.75 15.19L185.75 15.19Q185.79 15.29 185.79 15.36L185.79 15.36L185.79 15.36Q185.79 15.37 185.77 15.40L185.77 15.40L185.77 15.40Q185.75 15.41 185.74 15.41L185.74 15.41L185.74 15.41Q185.64 15.41 185.49 15.37L185.49 15.37L185.49 15.37Q185.33 15.33 185.14 15.25L185.14 15.25L185.14 15.25Q184.95 15.18 184.76 15.08L184.76 15.08L184.76 15.08Q184.58 14.98 184.41 14.87ZM191.60 19.35L191.60 19.35L191.60 19.35Q191.60 19.26 191.66 19.19L191.66 19.19L191.66 19.19Q191.72 19.12 191.79 19.05L191.79 19.05L191.79 19.05Q191.95 19.21 192.07 19.29L192.07 19.29L192.07 19.29Q192.19 19.38 192.30 19.43L192.30 19.43L192.30 19.43Q192.40 19.49 192.51 19.50L192.51 19.50L192.51 19.50Q192.63 19.52 192.78 19.52L192.78 19.52L192.78 19.52Q193.51 19.52 194.17 19.13L194.17 19.13L194.17 19.13Q194.82 18.75 195.40 18.02L195.40 18.02L195.40 18.02Q195.99 17.29 196.46 16.24L196.46 16.24L196.46 16.24Q196.94 15.19 197.30 13.86L197.30 13.86L197.30 13.86Q197.13 14.03 196.89 14.23L196.89 14.23L196.89 14.23Q196.64 14.43 196.38 14.62L196.38 14.62L196.38 14.62Q196.11 14.80 195.85 14.95L195.85 14.95L195.85 14.95Q195.59 15.11 195.41 15.18L195.41 15.18L195.41 15.18Q195.17 15.13 194.97 14.97L194.97 14.97L194.97 14.97Q194.77 14.81 194.61 14.57L194.61 14.57L194.61 14.57Q194.46 14.34 194.38 14.04L194.38 14.04L194.38 14.04Q194.29 13.73 194.29 13.40L194.29 13.40L194.29 13.40Q194.29 12.85 194.49 12.28L194.49 12.28L194.49 12.28Q194.70 11.70 195.03 11.15L195.03 11.15L195.03 11.15Q195.37 10.60 195.82 10.11L195.82 10.11L195.82 10.11Q196.28 9.62 196.79 9.25L196.79 9.25L196.79 9.25Q197.30 8.89 197.83 8.67L197.83 8.67L197.83 8.67Q198.35 8.46 198.86 8.46L198.86 8.46L198.86 8.46Q199.35 8.46 199.59 8.66L199.59 8.66L199.59 8.66Q199.84 8.86 199.95 9.35L199.95 9.35L199.95 9.35Q199.79 9.27 199.56 9.27L199.56 9.27L199.56 9.27Q199.22 9.27 198.78 9.53L198.78 9.53L198.78 9.53Q198.34 9.80 197.88 10.23L197.88 10.23L197.88 10.23Q197.43 10.65 196.98 11.21L196.98 11.21L196.98 11.21Q196.53 11.76 196.19 12.33L196.19 12.33L196.19 12.33Q195.85 12.91 195.63 13.45L195.63 13.45L195.63 13.45Q195.41 14 195.41 14.43L195.41 14.43L195.41 14.43Q195.41 14.53 195.43 14.55L195.43 14.55L195.43 14.55Q195.44 14.57 195.47 14.57L195.47 14.57L195.47 14.57Q195.59 14.57 195.81 14.43L195.81 14.43L195.81 14.43Q196.03 14.29 196.30 14.08L196.30 14.08L196.30 14.08Q196.57 13.86 196.87 13.57L196.87 13.57L196.87 13.57Q197.16 13.29 197.43 12.99L197.43 12.99L197.43 12.99Q198.03 12.32 198.53 11.49L198.53 11.49L198.53 11.49Q199.02 10.65 199.32 9.87L199.32 9.87L199.32 9.87Q199.70 9.90 199.99 10.00L199.99 10.00L199.99 10.00Q200.28 10.09 200.40 10.21L200.40 10.21L200.40 10.21Q199.92 11.30 199.63 12.04L199.63 12.04L199.63 12.04Q199.35 12.78 199.14 13.36L199.14 13.36L199.14 13.36Q198.76 14.36 198.43 15.20L198.43 15.20L198.43 15.20Q198.10 16.03 197.76 16.74L197.76 16.74L197.76 16.74Q197.41 17.44 197.01 18.05L197.01 18.05L197.01 18.05Q196.62 18.66 196.11 19.22L196.11 19.22L196.11 19.22Q195.87 19.49 195.57 19.69L195.57 19.69L195.57 19.69Q195.27 19.89 194.96 20.03L194.96 20.03L194.96 20.03Q194.64 20.17 194.34 20.24L194.34 20.24L194.34 20.24Q194.04 20.31 193.79 20.31L193.79 20.31L193.79 20.31Q193.45 20.31 193.10 20.24L193.10 20.24L193.10 20.24Q192.75 20.16 192.45 20.03L192.45 20.03L192.45 20.03Q192.15 19.89 191.93 19.72L191.93 19.72L191.93 19.72Q191.70 19.54 191.60 19.35ZM207.72 14.94L207.72 14.94L207.72 14.94Q207.72 14.45 207.82 13.78L207.82 13.78L207.82 13.78Q207.91 13.12 208.10 12.36L208.10 12.36L208.10 12.36Q208.29 11.61 208.55 10.78L208.55 10.78L208.55 10.78Q208.81 9.95 209.13 9.13L209.13 9.13L209.13 9.13Q209.41 8.39 209.78 7.63L209.78 7.63L209.78 7.63Q210.15 6.87 210.59 6.15L210.59 6.15L210.59 6.15Q211.02 5.42 211.49 4.76L211.49 4.76L211.49 4.76Q211.96 4.10 212.44 3.56L212.44 3.56L212.44 3.56Q212.66 3.56 212.92 3.61L212.92 3.61L212.92 3.61Q213.18 3.67 213.42 3.76L213.42 3.76L213.42 3.76Q213.67 3.85 213.87 3.98L213.87 3.98L213.87 3.98Q214.07 4.10 214.20 4.23L214.20 4.23L214.20 4.23Q213.15 5.31 212.31 6.40L212.31 6.40L212.31 6.40Q211.47 7.50 210.98 8.47L210.98 8.47L210.98 8.47Q210.71 9.00 210.50 9.46L210.50 9.46L210.50 9.46Q210.28 9.93 210.10 10.38L210.10 10.38L210.10 10.38Q209.92 10.84 209.77 11.29L209.77 11.29L209.77 11.29Q209.62 11.75 209.50 12.25L209.50 12.25L209.50 12.25Q212.18 8.82 213.49 8.82L213.49 8.82L213.49 8.82Q213.85 8.82 214.27 9.06L214.27 9.06L214.27 9.06Q214.69 9.30 215.01 9.70L215.01 9.70L215.01 9.70Q214.58 10.18 214.12 10.85L214.12 10.85L214.12 10.85Q213.65 11.52 213.27 12.20L213.27 12.20L213.27 12.20Q212.88 12.88 212.64 13.46L212.64 13.46L212.64 13.46Q212.39 14.04 212.39 14.32L212.39 14.32L212.39 14.32Q212.39 14.46 212.44 14.51L212.44 14.51L212.44 14.51Q212.48 14.56 212.62 14.56L212.62 14.56L212.62 14.56Q212.83 14.56 212.95 14.50L212.95 14.50L212.95 14.50Q213.08 14.45 213.11 14.45L213.11 14.45L213.11 14.45Q213.18 14.56 213.19 14.60L213.19 14.60L213.19 14.60Q213.21 14.64 213.21 14.67L213.21 14.67L213.21 14.67Q213.21 14.73 213.04 14.83L213.04 14.83L213.04 14.83Q212.87 14.94 212.64 15.04L212.64 15.04L212.64 15.04Q212.41 15.15 212.18 15.23L212.18 15.23L212.18 15.23Q211.96 15.32 211.85 15.32L211.85 15.32L211.85 15.32Q211.71 15.32 211.57 15.24L211.57 15.24L211.57 15.24Q211.43 15.16 211.32 15.04L211.32 15.04L211.32 15.04Q211.22 14.91 211.16 14.76L211.16 14.76L211.16 14.76Q211.09 14.60 211.09 14.43L211.09 14.43L211.09 14.43Q211.09 14.22 211.21 13.81L211.21 13.81L211.21 13.81Q211.33 13.40 211.54 12.85L211.54 12.85L211.54 12.85Q211.75 12.29 212.04 11.63L212.04 11.63L212.04 11.63Q212.34 10.98 212.67 10.29L212.67 10.29L212.67 10.29Q212.67 10.23 212.62 10.23L212.62 10.23L212.62 10.23Q212.58 10.23 212.40 10.35L212.40 10.35L212.40 10.35Q212.23 10.46 212.07 10.57L212.07 10.57L212.07 10.57Q211.57 10.95 211.06 11.50L211.06 11.50L211.06 11.50Q210.55 12.05 210.06 12.71L210.06 12.71L210.06 12.71Q209.58 13.37 209.15 14.11L209.15 14.11L209.15 14.11Q208.73 14.84 208.42 15.58L208.42 15.58L208.42 15.58Q208.38 15.68 208.29 15.76L208.29 15.76L208.29 15.76Q208.21 15.85 208.15 15.85L208.15 15.85L208.15 15.85Q208.11 15.85 208.03 15.75L208.03 15.75L208.03 15.75Q207.96 15.65 207.89 15.51L207.89 15.51L207.89 15.51Q207.83 15.36 207.77 15.20L207.77 15.20L207.77 15.20Q207.72 15.05 207.72 14.94ZM223.59 9.81L222.80 9.81L222.80 9.81Q222.73 9.73 222.67 9.46L222.67 9.46L222.67 9.46Q222.61 9.18 222.61 8.99L222.61 8.99L222.61 8.99Q222.98 9.02 223.31 9.04L223.31 9.04L223.31 9.04Q223.65 9.06 223.93 9.07L223.93 9.07L223.93 9.07Q224.14 8.65 224.38 8.24L224.38 8.24L224.38 8.24Q224.63 7.83 224.86 7.48L224.86 7.48L224.86 7.48Q225.09 7.14 225.29 6.90L225.29 6.90L225.29 6.90Q225.50 6.66 225.61 6.59L225.61 6.59L225.61 6.59Q225.75 6.59 225.97 6.64L225.97 6.64L225.97 6.64Q226.18 6.69 226.41 6.77L226.41 6.77L226.41 6.77Q226.63 6.85 226.81 6.93L226.81 6.93L226.81 6.93Q227.00 7.01 227.07 7.10L227.07 7.10L227.07 7.10Q226.65 7.63 226.34 8.09L226.34 8.09L226.34 8.09Q226.04 8.54 225.69 9.13L225.69 9.13L225.69 9.13Q225.97 9.13 226.26 9.11L226.26 9.11L226.26 9.11Q226.55 9.10 226.84 9.07L226.84 9.07L226.84 9.07Q226.91 9.14 226.95 9.25L226.95 9.25L226.95 9.25Q227.00 9.35 227.00 9.46L227.00 9.46L227.00 9.46Q226.31 9.72 225.33 9.74L225.33 9.74L225.33 9.74Q224.98 10.42 224.71 11.08L224.71 11.08L224.71 11.08Q224.43 11.75 224.25 12.36L224.25 12.36L224.25 12.36Q224.06 12.98 223.95 13.52L223.95 13.52L223.95 13.52Q223.85 14.07 223.85 14.50L223.85 14.50L223.85 14.50Q223.85 15.12 224.31 15.19L224.31 15.19L224.31 15.19Q224.73 15.13 225.11 14.98L225.11 14.98L225.11 14.98Q225.48 14.83 225.78 14.59L225.78 14.59L225.78 14.59Q225.86 14.71 225.88 14.80L225.88 14.80L225.88 14.80Q225.79 14.92 225.59 15.09L225.59 15.09L225.59 15.09Q225.39 15.26 225.15 15.42L225.15 15.42L225.15 15.42Q224.91 15.58 224.69 15.69L224.69 15.69L224.69 15.69Q224.46 15.81 224.35 15.82L224.35 15.82L224.35 15.82Q224 15.81 223.65 15.67L223.65 15.67L223.65 15.67Q223.30 15.53 223.01 15.32L223.01 15.32L223.01 15.32Q222.73 15.11 222.54 14.85L222.54 14.85L222.54 14.85Q222.36 14.59 222.36 14.34L222.36 14.34L222.36 14.34Q222.36 14 222.45 13.49L222.45 13.49L222.45 13.49Q222.54 12.98 222.71 12.38L222.71 12.38L222.71 12.38Q222.88 11.77 223.10 11.12L223.10 11.12L223.10 11.12Q223.33 10.46 223.59 9.81L223.59 9.81ZM238.73 9.60L238.73 9.60L238.73 9.60Q238.71 9.87 238.64 10.16L238.64 10.16L238.64 10.16Q238.56 10.44 238.45 10.68L238.45 10.68L238.45 10.68Q238.34 10.91 238.21 11.06L238.21 11.06L238.21 11.06Q238.08 11.21 237.97 11.21L237.97 11.21L237.97 11.21Q237.82 11.20 237.79 11.00L237.79 11.00L237.79 11.00Q237.79 10.96 237.82 10.87L237.82 10.87L237.82 10.87Q237.86 10.78 237.90 10.67L237.90 10.67L237.90 10.67Q237.94 10.56 237.98 10.44L237.98 10.44L237.98 10.44Q238.01 10.33 238.01 10.25L238.01 10.25L238.01 10.25Q238.01 10.05 237.92 9.92L237.92 9.92L237.92 9.92Q237.83 9.79 237.68 9.79L237.68 9.79L237.68 9.79Q237.12 9.79 236.82 10.49L236.82 10.49L236.82 10.49Q236.53 11.19 236.53 12.54L236.53 12.54L236.53 12.54Q236.53 12.68 236.54 12.71L236.54 12.71L236.54 12.71Q236.84 12.70 237.07 12.69L237.07 12.69L237.07 12.69Q237.30 12.68 237.52 12.68L237.52 12.68L237.52 12.68Q237.54 12.71 237.54 12.80L237.54 12.80L237.54 12.80Q237.54 12.92 237.48 12.98L237.48 12.98L237.48 12.98Q237.16 13.05 236.97 13.10L236.97 13.10L236.97 13.10Q236.78 13.15 236.68 13.19L236.68 13.19L236.68 13.19Q236.59 13.23 236.56 13.28L236.56 13.28L236.56 13.28Q236.54 13.33 236.54 13.41L236.54 13.41L236.54 13.41Q236.54 13.52 236.55 13.64L236.55 13.64L236.55 13.64Q236.56 13.75 236.56 13.92L236.56 13.92L236.56 13.92Q236.56 15.09 235.92 15.81L235.92 15.81L235.92 15.81Q235.28 16.52 234.15 16.63L234.15 16.63L234.15 16.63Q233.95 16.62 233.74 16.52L233.74 16.52L233.74 16.52Q233.53 16.42 233.34 16.27L233.34 16.27L233.34 16.27Q233.16 16.11 233.02 15.93L233.02 15.93L233.02 15.93Q232.88 15.74 232.82 15.54L232.82 15.54L232.82 15.54Q232.82 15.01 233.04 14.53L233.04 14.53L233.04 14.53Q233.27 14.04 233.65 13.67L233.65 13.67L233.65 13.67Q234.04 13.30 234.56 13.07L234.56 13.07L234.56 13.07Q235.09 12.84 235.70 12.80L235.70 12.80L235.70 12.80Q235.70 12.45 235.63 12.11L235.63 12.11L235.63 12.11Q235.56 11.77 235.49 11.46L235.49 11.46L235.49 11.46Q235.41 11.14 235.34 10.84L235.34 10.84L235.34 10.84Q235.27 10.54 235.27 10.25L235.27 10.25L235.27 10.25Q235.27 9.87 235.42 9.50L235.42 9.50L235.42 9.50Q235.58 9.13 235.83 8.81L235.83 8.81L235.83 8.81Q236.08 8.50 236.42 8.27L236.42 8.27L236.42 8.27Q236.75 8.05 237.12 7.97L237.12 7.97L237.12 7.97Q237.27 8.01 237.53 8.21L237.53 8.21L237.53 8.21Q237.79 8.41 238.04 8.67L238.04 8.67L238.04 8.67Q238.29 8.92 238.49 9.18L238.49 9.18L238.49 9.18Q238.69 9.44 238.73 9.60ZM234.11 15.99L234.11 15.99L234.11 15.99Q234.44 15.85 234.75 15.58L234.75 15.58L234.75 15.58Q235.05 15.32 235.27 14.98L235.27 14.98L235.27 14.98Q235.49 14.64 235.63 14.27L235.63 14.27L235.63 14.27Q235.76 13.89 235.76 13.52L235.76 13.52L235.76 13.52Q235.48 13.57 235.14 13.78L235.14 13.78L235.14 13.78Q234.81 14 234.51 14.30L234.51 14.30L234.51 14.30Q234.22 14.60 234.02 14.92L234.02 14.92L234.02 14.92Q233.83 15.25 233.83 15.48L233.83 15.48L233.83 15.48Q233.83 15.79 234.11 15.99Z"></path></g></svg>