<svg data-v-423bf9ae="" xmlns="http://www.w3.org/2000/svg" viewBox="0 0 173.40923213204022 60" class="font"><!----><!----><defs data-v-423bf9ae=""><linearGradient data-v-423bf9ae="" gradientTransform="rotate(25)" id="9a9056fb-3aac-47f8-9434-3f63024b6422" x1="0%" y1="0%" x2="100%" y2="0%"><stop data-v-423bf9ae="" offset="0%" style="stop-color: rgb(30, 11, 54); stop-opacity: 1;"></stop><stop data-v-423bf9ae="" offset="100%" style="stop-color: rgb(202, 55, 130); stop-opacity: 1;"></stop></linearGradient></defs><g data-v-423bf9ae="" id="a4c99c42-0ac9-46db-b97e-4f7fa65c2fc4" fill="url(#9a9056fb-3aac-47f8-9434-3f63024b6422)" transform="matrix(3.4149118407597263,0,0,3.4149118407597263,1.9123505831361882,-8.40068230486316)"><path d="M1.16 5.26L1.16 5.26L1.16 5.26Q1.16 4.86 1.27 4.55L1.27 4.55L1.27 4.55Q3.04 4.75 4.54 4.75L4.54 4.75L4.54 4.75Q6.03 4.75 6.78 4.69L6.78 4.69L6.78 4.69Q6.97 4.23 7.10 3.70L7.10 3.70L7.10 3.70Q7.74 4.54 7.74 5.54L7.74 5.54L7.74 5.54Q7.74 6.15 7.14 7.14L7.14 7.14L7.14 7.14Q6.54 8.13 5.74 9.10L5.74 9.10L5.74 9.10Q3.01 12.47 1.92 14.18L1.92 14.18L1.92 14.18Q2.31 14.21 2.53 14.21L2.53 14.21L2.53 14.21Q5.56 14.21 7.07 13.79L7.07 13.79L7.07 13.79Q6.96 14.60 6.50 15.05L6.50 15.05L6.50 15.05Q6.05 15.50 5.36 15.50L5.36 15.50L5.36 15.50Q5.00 15.50 3.89 15.38L3.89 15.38L3.89 15.38Q2.77 15.26 1.60 15.26L1.60 15.26L1.60 15.26Q0.42 15.26-0.56 15.47L-0.56 15.47L-0.56 15.47Q-0.34 14.80 0.28 14.48L0.28 14.48L0.28 14.48Q4.45 9.42 6.33 5.66L6.33 5.66L6.33 5.66Q2.81 6.27 1.81 6.27L1.81 6.27L1.81 6.27Q1.16 6.27 1.16 5.26ZM12.68 8.08L12.68 8.08L12.68 8.08Q11.84 8.08 11.26 9.04L11.26 9.04L11.26 9.04Q10.68 10.01 10.49 11.31L10.49 11.31L10.88 11.31L10.88 11.31Q11.62 11.31 12.17 11.10L12.17 11.10L12.17 11.10Q12.71 10.89 13.01 10.56L13.01 10.56L13.01 10.56Q13.57 9.91 13.57 9.10L13.57 9.10L13.57 9.10Q13.57 8.64 13.35 8.36L13.35 8.36L13.35 8.36Q13.13 8.08 12.68 8.08ZM14.66 13.75L14.66 13.75Q14.01 14.80 13.24 15.22L13.24 15.22L13.24 15.22Q12.47 15.64 11.46 15.64L11.46 15.64L11.46 15.64Q10.44 15.64 9.69 14.74L9.69 14.74L9.69 14.74Q8.93 13.85 8.93 12.22L8.93 12.22L8.93 12.22Q8.93 10.37 9.93 8.92L9.93 8.92L9.93 8.92Q10.42 8.22 11.21 7.78L11.21 7.78L11.21 7.78Q12.00 7.35 12.95 7.35L12.95 7.35L12.95 7.35Q15.05 7.35 15.05 9.38L15.05 9.38L15.05 9.38Q15.05 10.60 14.11 11.29L14.11 11.29L14.11 11.29Q13.16 11.98 11.91 11.98L11.91 11.98L11.91 11.98Q11.09 11.98 10.43 11.83L10.43 11.83L10.43 11.83Q10.42 11.97 10.42 12.26L10.42 12.26L10.42 12.26Q10.42 14.74 11.89 14.74L11.89 14.74L11.89 14.74Q13.27 14.74 14.14 13.37L14.14 13.37L14.14 13.37Q14.66 13.44 14.66 13.75L14.66 13.75ZM21.80 12.61L21.80 12.61L21.80 12.61Q22.09 10.64 22.25 8.82L22.25 8.82L22.25 8.82Q22.41 7 22.41 5.52L22.41 5.52L22.41 5.52Q22.41 4.03 22.22 3.57L22.22 3.57L22.22 3.57Q23.38 3.96 23.67 4.80L23.67 4.80L23.67 4.80Q24.77 4.20 25.91 4.20L25.91 4.20L25.91 4.20Q27.06 4.20 27.92 4.83L27.92 4.83L27.92 4.83Q28.78 5.46 28.78 6.52L28.78 6.52L28.78 6.52Q28.77 7.59 28.08 8.37L28.08 8.37L28.08 8.37Q27.40 9.16 26.14 9.58L26.14 9.58L26.14 9.58Q27.12 9.79 27.92 10.52L27.92 10.52L27.92 10.52Q28.71 11.26 28.71 12.33L28.71 12.33L28.71 12.33Q28.71 13.99 27.56 14.88L27.56 14.88L27.56 14.88Q26.40 15.76 24.66 15.76L24.66 15.76L24.66 15.76Q22.92 15.76 21.49 14.69L21.49 14.69L21.49 14.69Q21.50 14.57 21.80 12.61ZM27.34 6.95L27.34 6.95L27.34 6.95Q27.34 6.17 26.84 5.71L26.84 5.71L26.84 5.71Q26.33 5.24 25.47 5.24L25.47 5.24L25.47 5.24Q24.60 5.24 23.84 5.60L23.84 5.60L23.84 5.60Q23.84 6.48 23.47 10.00L23.47 10.00L23.47 10.00Q23.10 13.52 23.10 14.52L23.10 14.52L23.10 14.52Q23.81 14.77 24.50 14.77L24.50 14.77L24.50 14.77Q25.70 14.77 26.49 14.08L26.49 14.08L26.49 14.08Q27.27 13.38 27.27 12.21L27.27 12.21L27.27 12.21Q27.27 11.33 26.47 10.66L26.47 10.66L26.47 10.66Q25.66 10.00 24.23 9.94L24.23 9.94L24.19 9.44L24.19 9.44Q25.68 9.25 26.51 8.49L26.51 8.49L26.51 8.49Q27.34 7.73 27.34 6.95ZM30.88 14.41L30.88 14.41L30.88 14.41Q30.87 14.18 30.87 13.69L30.87 13.69L30.87 13.69Q30.87 13.19 31.34 9.44L31.34 9.44L31.34 9.44Q31.81 5.68 31.81 4.28L31.81 4.28L31.81 4.28Q31.81 2.88 31.64 2.46L31.64 2.46L31.64 2.46Q32.42 2.76 32.75 3.33L32.75 3.33L32.75 3.33Q33.07 3.91 33.07 4.72L33.07 4.72L33.07 4.72Q33.07 5.53 32.66 8.92L32.66 8.92L32.66 8.92Q32.26 12.31 32.26 14.38L32.26 14.38L32.26 14.38Q32.26 14.83 32.31 15.64L32.31 15.64L32.31 15.64Q31.54 15.58 31.22 15.27L31.22 15.27L31.22 15.27Q30.95 15.02 30.88 14.41ZM40.28 10.83L40.28 10.83L40.28 10.83Q40.28 9.46 39.93 8.87L39.93 8.87L39.93 8.87Q39.59 8.27 38.95 8.27L38.95 8.27L38.95 8.27Q38.32 8.27 37.67 8.90L37.67 8.90L37.67 8.90Q37.03 9.52 36.66 10.44L36.66 10.44L36.66 10.44Q36.29 11.35 36.29 12.34L36.29 12.34L36.29 12.34Q36.29 13.33 36.67 14.05L36.67 14.05L36.67 14.05Q37.04 14.77 37.81 14.77L37.81 14.77L37.81 14.77Q38.91 14.77 39.59 13.48L39.59 13.48L39.59 13.48Q40.28 12.19 40.28 10.83ZM36.22 10.29L36.22 10.29Q36.75 8.78 37.65 8.09L37.65 8.09L37.65 8.09Q38.56 7.39 39.49 7.39L39.49 7.39L39.49 7.39Q40.42 7.39 41.03 8.21L41.03 8.21L41.03 8.21Q41.65 9.03 41.65 10.43L41.65 10.43L41.65 10.43Q41.65 11.97 41.06 13.29L41.06 13.29L41.06 13.29Q40.40 14.74 39.16 15.32L39.16 15.32L39.16 15.32Q38.49 15.64 37.67 15.64L37.67 15.64L37.67 15.64Q36.54 15.64 35.69 14.69L35.69 14.69L35.69 14.69Q34.83 13.75 34.83 11.99L34.83 11.99L34.83 11.99Q34.83 10.23 35.59 8.95L35.59 8.95L35.59 8.95Q36.34 7.66 37.65 7.15L37.65 7.15L37.65 7.15Q37.93 7.15 37.93 7.43L37.93 7.43L37.93 7.43Q36.54 8.34 36.22 10.29L36.22 10.29ZM47.87 7.49L47.87 7.49L47.87 7.49Q48.40 7.49 48.45 7.90L48.45 7.90L48.45 7.90Q46.91 8.22 45.89 9.63L45.89 9.63L45.89 9.63Q44.87 11.03 44.87 12.46L44.87 12.46L44.87 12.46Q44.87 13.24 45.17 13.76L45.17 13.76L45.17 13.76Q45.47 14.28 46.12 14.28L46.12 14.28L46.12 14.28Q46.77 14.28 47.35 13.58L47.35 13.58L47.35 13.58Q48.37 12.33 48.73 9.66L48.73 9.66L48.73 9.66Q48.96 7.94 49.25 7.42L49.25 7.42L49.25 7.42Q49.64 6.78 50.22 6.57L50.22 6.57L50.22 6.57Q50.02 8.05 50.02 8.81L50.02 8.81L50.02 8.81Q50.02 14.41 48.87 17.22L48.87 17.22L48.87 17.22Q47.73 20.03 45.14 20.03L45.14 20.03L45.14 20.03Q44.11 20.03 43.53 19.54L43.53 19.54L43.53 19.54Q42.95 19.04 42.95 18.41L42.95 18.41L42.95 18.41Q42.95 17.78 43.29 17.33L43.29 17.33L43.29 17.33Q43.64 16.88 44.20 16.88L44.20 16.88L44.20 16.88Q44.51 16.88 44.84 17.02L44.84 17.02L44.84 17.02Q44.62 17.18 44.46 17.50L44.46 17.50L44.46 17.50Q44.31 17.82 44.31 18.22L44.31 18.22L44.31 18.22Q44.31 18.62 44.61 18.89L44.61 18.89L44.61 18.89Q44.91 19.17 45.44 19.17L45.44 19.17L45.44 19.17Q45.98 19.17 46.45 18.85L46.45 18.85L46.45 18.85Q46.93 18.54 47.36 17.86L47.36 17.86L47.36 17.86Q48.29 16.41 48.37 12.87L48.37 12.87L48.37 12.87Q47.98 14.07 47.16 14.80L47.16 14.80L47.16 14.80Q46.34 15.53 45.50 15.53L45.50 15.53L45.50 15.53Q44.42 15.53 43.87 14.71L43.87 14.71L43.87 14.71Q43.32 13.89 43.32 12.61L43.32 12.61L43.32 12.61Q43.32 10.84 44.49 9.23L44.49 9.23L44.49 9.23Q45.05 8.46 45.93 7.97L45.93 7.97L45.93 7.97Q46.82 7.49 47.87 7.49Z"></path></g><!----><!----></svg>