<svg data-v-423bf9ae="" xmlns="http://www.w3.org/2000/svg" viewBox="0 0 177.55715626016044 60" class="font"><!----><!----><!----><g data-v-423bf9ae="" id="d9539f8d-82a4-4520-8efc-46128d8dba84" fill="black" transform="matrix(4.285714577655423,0,0,4.285714577655423,-0.000002232863423046183,-12.000000374657809)"><path d="M3.89 8.54C4.59 8.44 5.01 8.40 5.71 8.39C4.86 9.80 3.88 11.21 2.98 12.15C2.27 11.94 1.61 11.79 1.08 11.79C0.29 11.79 0 12.12 0 12.52C0 13.02 0.48 13.64 1.29 13.64C1.85 13.64 2.45 13.34 3.08 12.85C4.30 13.41 5.63 14.10 6.61 14.10C7.28 14.10 7.77 13.78 8.08 12.91C7.78 13.06 7.48 13.13 7.08 13.13C6.13 13.13 4.86 12.73 3.65 12.35C4.70 11.34 5.78 9.87 6.71 8.36C7.97 8.33 8.25 8.32 8.55 7.87C8.12 7.87 7.63 7.80 7.07 7.74C7.84 6.41 8.48 5.12 8.89 4.16C9.10 4.05 9.32 3.89 9.59 3.67C9.45 3.70 9.32 3.70 9.14 3.70C7.67 3.70 6.26 2.80 4.30 2.80C2.63 2.80 1.60 3.44 1.60 4.69C1.60 5.25 1.81 5.60 2.35 5.70C2.31 5.56 2.30 5.43 2.30 5.21C2.30 3.67 2.98 3.19 3.88 3.19C5.12 3.19 6.83 4.10 7.77 4.34C7.46 5.15 6.86 6.37 6.13 7.66C5.92 7.64 5.71 7.63 5.50 7.63C4.38 7.63 3.46 7.83 3.42 8.61ZM1.22 13.26C0.70 13.26 0.36 12.80 0.36 12.49C0.36 12.31 0.48 12.15 0.88 12.15C1.32 12.15 1.89 12.35 2.51 12.60C2.03 13.01 1.58 13.26 1.22 13.26ZM13.30 8.69C13.30 8.01 12.87 7.84 12.43 7.84C10.78 7.84 8.88 10.21 8.88 11.87C8.88 12.78 9.45 13.50 10.58 13.50C11.97 13.50 13.43 12.42 14.18 10.74L14.01 10.61C13.31 11.96 12.07 13.09 10.88 13.09C10.01 13.09 9.77 12.49 9.77 11.91C9.77 11.77 9.79 11.59 9.83 11.41C11.42 11.26 13.30 10.12 13.30 8.69ZM12.39 8.27C12.63 8.27 12.68 8.39 12.68 8.60C12.68 9.80 10.89 10.79 9.90 11.14C10.28 9.81 11.49 8.27 12.39 8.27ZM25.82 5.03C25.82 3.08 23.83 2.80 22.58 2.80C21.13 2.80 20.20 3.18 19.26 3.57C19.26 3.71 19.57 3.95 19.71 3.95C19.89 3.95 20.47 3.40 21.64 3.19C20.41 5.59 18.96 10.12 18.68 11.05C18.61 11.28 18.48 11.62 18.48 11.84C18.48 12.22 18.84 12.52 19.31 12.52C19.73 11.07 20.13 9.52 20.57 8.01C20.87 8.01 21.25 7.99 21.62 7.99C23.21 7.99 25.14 8.23 25.14 9.76C25.14 11.45 22.79 13.08 19.57 13.08C18.62 13.08 18.38 12.94 18.26 12.94C18.21 12.94 18.19 12.95 18.19 12.98C18.19 13.78 18.72 14.10 19.74 14.10C21.83 14.10 25.80 12.74 25.80 10.01C25.80 9.13 25.38 7.92 22.61 7.76C24.05 7.52 25.82 6.86 25.82 5.03ZM22.61 3.09C23.81 3.09 24.98 3.46 24.98 4.91C24.98 6.96 22.69 7.62 20.65 7.69C21.14 6.02 21.67 4.42 22.34 3.11C22.43 3.09 22.51 3.09 22.61 3.09ZM31.42 3.84C31.42 3.44 31.25 2.80 30.95 2.80C30.00 2.80 26.60 9.17 26.60 11.86C26.60 12.68 26.92 13.30 27.72 13.30C28.73 13.30 29.61 12.32 30.35 10.72L30.14 10.61C29.65 11.70 28.87 12.85 28.13 12.85C27.72 12.85 27.51 12.50 27.51 11.77C27.51 11.35 27.58 10.86 27.69 10.36C29.74 8.67 31.42 5.08 31.42 3.84ZM30.88 3.93C30.93 3.93 30.98 3.98 30.98 4.16C30.98 5.10 29.44 8.25 27.82 9.88C28.59 7.18 30.51 3.93 30.88 3.93ZM35.81 10.64C35.45 11.41 35.10 11.70 34.71 11.70C34.22 11.70 33.73 11.26 33.73 10.54C33.73 9.80 34.27 9.13 34.27 8.78C34.27 8.61 34.15 8.23 33.80 8.23C33.75 8.23 33.73 8.23 33.70 8.25C33.61 8.08 33.45 7.95 33.10 7.95C31.43 7.95 29.71 10.63 29.71 12.11C29.71 12.82 30.11 13.33 30.83 13.33C31.81 13.33 32.69 12.38 33.28 11.00C33.56 11.65 34.08 11.98 34.59 11.98C35.06 11.98 35.59 11.72 35.99 10.78ZM31.14 12.73C30.80 12.73 30.60 12.45 30.60 12.01C30.60 10.95 31.74 8.50 33.32 8.50C33.17 8.74 33.05 9.14 33.05 9.77C33.05 10.09 33.08 10.35 33.14 10.57C32.63 11.77 31.77 12.73 31.14 12.73ZM39.68 8.75C39.72 8.74 39.84 8.64 39.84 8.47C39.84 8.23 39.62 8.02 39.09 8.02C37.58 8.02 35.38 9.70 35.38 11.65C35.38 12.46 35.76 13.01 36.43 13.01C37.21 13.01 38.00 12.24 38.71 11.21C38.49 12.12 38.25 12.88 38.00 13.52C36.82 14.11 35.27 14.85 35.27 15.99C35.27 16.56 35.67 16.80 36.08 16.80C37.13 16.80 38.02 15.27 38.81 13.38C39.68 12.96 40.99 12.01 41.43 10.75L41.24 10.61C40.82 11.68 39.87 12.54 38.96 12.98C39.61 11.31 40.04 9.60 40.04 9.14C39.93 9.11 39.83 9.10 39.75 9.10C39.28 9.10 39.09 9.55 39.03 9.81L38.86 10.56C38.15 11.58 37.32 12.40 36.79 12.40C36.50 12.40 36.30 12.17 36.30 11.72C36.30 10.54 37.65 8.54 39.12 8.54C39.40 8.54 39.58 8.61 39.68 8.75ZM36.04 16.35C35.84 16.35 35.70 16.16 35.70 15.86C35.70 15.06 36.74 14.46 37.84 13.90C37.10 15.69 36.40 16.35 36.04 16.35Z"></path></g><!----><!----></svg>